<?xml version="1.0" encoding="utf-8"?>
<!-- Generator: Adobe Illustrator 17.1.0, SVG Export Plug-In . SVG Version: 6.00 Build 0)  -->
<!DOCTYPE svg PUBLIC "-//W3C//DTD SVG 1.1//EN" "http://www.w3.org/Graphics/SVG/1.1/DTD/svg11.dtd">
<svg version="1.1" xmlns="http://www.w3.org/2000/svg" xmlns:xlink="http://www.w3.org/1999/xlink" x="0px" y="0px"
	 viewBox="0 0 544.6 64.7" enable-background="new 0 0 544.6 64.7" xml:space="preserve">
<g id="main">
	<text transform="matrix(1 0 0 1 -718.8069 -0.1987)" display="none"><tspan x="0" y="0" display="inline" font-family="'Crete-Thick'" font-size="90">mormon</tspan><tspan x="350.5" y="0" display="inline" font-family="'Facit-Bold'" font-size="90">Geeks.com</tspan></text>
</g>
<g id="svg">
	<g>
		<g>
			<path fill="#FFFFFF" d="M369.1,30.8v29.6c-5,2.1-11.5,3.7-19.5,3.7c-9.4,0-15.2-2.2-19.3-6.2c-5.5-5.4-6.5-13.4-6.5-22.4
				c0-10.4,1.4-18.7,6.9-24c3.9-3.8,9.7-6.1,18.9-6.1c7.8,0,14.5,1.7,19.1,6l-7.7,9.4c-3.1-2.6-7.2-3.8-12.1-3.8
				c-4.7,0-7,1.1-8.5,2.8c-1.8,2.2-2.5,5.7-2.5,14.9c0,10.3,0.8,14,2.7,16.1c1.6,1.7,4.1,2.6,8.4,2.6c2.8,0,5.9-0.3,8-1V41.6h-9.4
				V30.8H369.1z"/>
			<path fill="#FFFFFF" d="M414.7,57.3c-4.7,4.8-10.5,7-18,7c-5.9,0-10.4-1.5-13.7-4.3c-3.7-3.3-5.7-8.6-5.7-17
				c0-7,1.4-13.4,5.5-17.7c3-3.1,7.5-5.3,14.5-5.3c13.7,0,17.9,8.7,17.9,20.4c0,1.7-0.1,3-0.3,5L390,45.6c0.1,5.5,1.1,8.7,7.1,8.7
				c4.4,0,8.1-1.7,11.2-4.5L414.7,57.3z M402.9,37.1c-0.1-4.9-0.9-7.6-6-7.6c-5.2,0-6.5,3-6.7,7.6H402.9z"/>
			<path fill="#FFFFFF" d="M459.7,57.3c-4.7,4.8-10.5,7-18,7c-5.9,0-10.4-1.5-13.7-4.3c-3.7-3.3-5.7-8.6-5.7-17
				c0-7,1.4-13.4,5.5-17.7c3-3.1,7.5-5.3,14.5-5.3c13.7,0,17.9,8.7,17.9,20.4c0,1.7-0.1,3-0.3,5l-24.9,0.2c0.1,5.5,1.1,8.7,7.1,8.7
				c4.4,0,8.1-1.7,11.2-4.5L459.7,57.3z M448,37.1c-0.1-4.9-0.9-7.6-6-7.6c-5.2,0-6.5,3-6.7,7.6H448z"/>
			<g>
				<rect x="503.1" y="27.8" fill="#FFFFFF" width="1" height="1"/>
				<path fill="#FFFFFF" d="M498.2,23v4.8h4.8v-6.7v-0.8v-2.1h-9.7v2.9V23H498.2L498.2,23z M501.1,22h1v1h-1V22z M497.3,19.1h1.9
					v1.9h-1.9V19.1z"/>
				<path fill="#FFFFFF" d="M500.2,34.2v-2.5h-2.9v-1.9h-5.8v0v-2.9H490l-4.7,8.6h-3.1V0h-13v63.3h13V47.8h2.7l8.9,15.5h16
					l-14.1-21.9L500.2,34.2z M498.2,32.7h1v1h-1V32.7z M495.4,30.7h1v1h-1V30.7z"/>
				<rect x="501.1" y="12.4" fill="#FFFFFF" width="3.9" height="3.9"/>
				<rect x="496.3" y="14.3" fill="#FFFFFF" width="1.9" height="1.9"/>
				<rect x="505" y="20.1" fill="#FFFFFF" width="2.9" height="2.9"/>
				<rect x="502.1" y="7.6" fill="#FFFFFF" width="1.9" height="1.9"/>
				<rect x="508.9" y="6.6" fill="#FFFFFF" width="1" height="1"/>
				<rect x="506" y="25.9" fill="#FFFFFF" width="1" height="1"/>
				<rect x="506.9" y="15.3" fill="#FFFFFF" width="1.9" height="1.9"/>
				<rect x="501.1" y="28.8" fill="#FFFFFF" width="1.9" height="1.9"/>
				<rect x="492.5" y="24" fill="#FFFFFF" width="4.8" height="4.8"/>
				<rect x="509.8" y="12.4" fill="#FFFFFF" width="1" height="1"/>
				<rect x="490.5" y="24.9" fill="#FFFFFF" width="1" height="1"/>
				<rect x="501.1" y="31.7" fill="#FFFFFF" width="1.9" height="1.9"/>
				<rect x="490.5" y="22" fill="#FFFFFF" width="1.9" height="1.9"/>
				<rect x="498.2" y="28.8" fill="#FFFFFF" width="1.9" height="1.9"/>
			</g>
			<path fill="#FFFFFF" d="M537.9,32.9c-2.7-2.2-5.8-3.1-8.9-3.1c-2.9,0-4.5,0.8-4.5,3c0,5.2,20.1,2.6,20.1,17.8
				c0,10.1-8.9,13.7-17.7,13.7c-5.7,0-11.8-1.5-15.3-5.4l6-7.9c2.6,2.5,6.1,3.6,10.1,3.6c2.9,0,5-0.7,5-3.4
				c0-5.8-20.2-2.8-20.2-17.9c0-8.9,7.9-13.2,17.4-13.2c5.2,0,10.8,1.3,14.1,4.9L537.9,32.9z"/>
		</g>
	</g>
	<g>
		<g>
			<path fill="#3D57A6" d="M0,22.3h15v5.5c2.9-4.7,7.1-6.9,12-6.9c6,0,9.9,2.5,11.8,7.3c3.2-5.2,8.1-7.3,13-7.3
				c8.4,0,12.8,4.7,12.8,14.1v21.6l6.5-0.2v6.9H50.5v-6.9l4.8,0.2V39.2c0-5.9-0.6-10-7.1-10c-4.9,0-8.4,3.5-8.4,7.2v20.3l5.2-0.2
				v6.9H26.2v-6.9l4.4,0.2V39.2c0-5.9-0.6-10-7.1-10c-5.2,0-8.4,4.1-8.4,8.1v19.5l6.9-0.4v6.9H0.1v-6.9l5.6,0.4V29L0,29.1V22.3z"/>
		</g>
		<g>
			<path fill="#3D57A6" d="M94.4,21c6.5,0,18.6,1.3,18.6,20.7c0,15.5-8.9,23-19.9,23c-11.3,0-18.3-6.2-18.3-21.3
				C74.7,26,86.4,21,94.4,21z M103.3,42.9c0-9.3-2.6-15.1-9.7-15.1c-6.9,0-9.5,5.8-9.5,13.8c0,7.4,1.4,16.3,9.7,16.3
				C100.6,57.9,103.3,52.4,103.3,42.9z"/>
		</g>
		<g>
			<path fill="#3D57A6" d="M149.9,22.6V36h-7.2l0.3-5.7c-0.4-0.1-0.9-0.1-1.3-0.1c-5,0-8.8,4.2-8.8,11.1v15.3l10.3-0.4v7.1H118v-6.9
				l5.6,0.2V29l-5.7,0.2v-6.9h15v7c1.6-3.8,5.2-7.6,11.2-7.6C145.8,21.7,147.2,21.9,149.9,22.6z"/>
		</g>
		<g>
			<path fill="#3D57A6" d="M154.5,22.3h15v5.5c2.9-4.7,7.1-6.9,12-6.9c6,0,9.9,2.5,11.8,7.3c3.2-5.2,8.1-7.3,13-7.3
				c8.4,0,12.8,4.7,12.8,14.1v21.6l6.5-0.2v6.9h-20.5v-6.9l4.8,0.2V39.2c0-5.9-0.6-10-7.1-10c-4.9,0-8.4,3.5-8.4,7.2v20.3l5.2-0.2
				v6.9h-18.9v-6.9l4.4,0.2V39.2c0-5.9-0.6-10-7.1-10c-5.2,0-8.4,4.1-8.4,8.1v19.5l6.9-0.4v6.9h-21.8v-6.9l5.6,0.4V29l-5.7,0.2V22.3
				z"/>
		</g>
		<g>
			<path fill="#3D57A6" d="M248.8,21c6.5,0,18.6,1.3,18.6,20.7c0,15.5-8.9,23-19.9,23c-11.3,0-18.3-6.2-18.3-21.3
				C229.2,26,240.9,21,248.8,21z M257.8,42.9c0-9.3-2.6-15.1-9.7-15.1c-6.9,0-9.5,5.8-9.5,13.8c0,7.4,1.4,16.3,9.7,16.3
				C255,57.9,257.8,52.4,257.8,42.9z"/>
		</g>
		<g>
			<path fill="#3D57A6" d="M272.4,22.3h15v5.5c3.3-4.9,7.9-6.9,12.8-6.9c8.4,0,12.8,4.7,12.8,14.1v21.7l6.5-0.2v6.8H299v-6.8
				l4.8,0.2V39.2c0-5.9-0.6-10-7.1-10c-5.2,0-9.3,4.1-9.3,8.1v19.5l6.9-0.3v6.8h-21.8v-6.8l5.6,0.3V29l-5.7,0.2V22.3z"/>
		</g>
	</g>
</g>
<g id="grid" display="none">
</g>
</svg>
